# xmcd
#
# Track frame offsets: 
#        150
#        33902
#        51675
#        65962
#        78017
#        93290
#        106032
#        119995
#        138065
#
# Disc length: 2056 seconds
#
# Revision: 0
# Processed by: cddbd v1.5.2PL0 Copyright (c) Steve Scherf et al.
# Submitted via: ExactAudioCopy v0.99pb3
#
DISCID=79080609
DTITLE=Muddy Waters - Unk In Funk
DYEAR=1974
DGENRE=Blues
TTITLE0=Rollin' And Tumblin'
TTITLE1=Just To Be With You
TTITLE2=Electric Man
TTITLE3=Trouble No More
TTITLE4=Unk In Funk
TTITLE5=Drive Me Blues Away
TTITLE6=Katie
TTITLE7=Waterboy Waterboy
TTITLE8=Everything Gonna Be Alright
EXTD=
EXTT0=
EXTT1=
EXTT2=
EXTT3=
EXTT4=
EXTT5=
EXTT6=
EXTT7=
EXTT8=
PLAYORDER=
